Patient4_TMGait_0pt7_02_left_21_EMG.mot
version=1
nRows=16
nColumns=33
inDegrees=no
endheader
time	1LAddLong	2LGlutMax	3LGlutMed	4LIliopsoas	5LSemiMemb	6LBicFemLong	7LRecFem	8LVastMed	9LVastLat	10LGasMed	11LTibAnt	12lTibPost	13LPeroneusLong	14LSol	15LExtDigLong	16LFlexDigLong	17RAddLong	18RGlutMax	19RGlutMed	20RIliopsoas	21RSemiMemb	22RBicFemLong	23RRecFem	24RVastMed	25RVastLat	26RGasMed	27RTibAnt	28RTibPost	29RPeroneusLong	30RSol	31RExtDigLong	32RFlexDigLong
24.24	-0.010376	0.93155	0.22858	-0.012512	-0.11261	0.29358	0.81818	0.017853	-0.36499	-0.31616	-0.05127	0.007629	-0.024414	-0.31418	0.17349	0.07782	0.14679	0.93521	-0.16937	0.12268	-0.15839	-0.1648	0.9372	-0.22125	-0.051117	0.003357	-0.11429	-0.006409	-0.026703	-0.20142	-0.013733	-0.001373
24.241	-0.021667	0.90073	0.1294	-0.005188	-0.089874	0.30868	0.71121	0.075989	-0.43442	-0.27252	-0.010529	-0.13397	-0.084534	-0.17578	0.092163	0.079193	0.14969	1.0336	-0.18387	0.14389	-0.16144	-0.13809	0.97015	-0.23804	-0.043488	-0.00061	-0.014801	-0.014648	-0.032959	-0.15823	-0.016327	-0.000305
24.242	-0.025787	0.87936	0.037231	0.000153	-0.19134	0.057831	0.53528	0.031433	-0.37689	-0.22751	-0.00824	0.19424	-0.088043	0.039063	0.028687	-0.028687	0.076904	1.0153	-0.20172	0.16846	-0.13351	-0.11231	1.022	-0.22018	-0.042877	0.005188	0.026703	-0.014801	-0.018921	-0.22507	-0.012054	-0.002136
24.243	-0.031891	0.8194	-0.10864	-0.006866	-0.28336	-0.13199	0.42084	0.017242	-0.27557	-0.09201	0.019379	0.34668	-0.039825	0.30045	-0.028381	-0.033264	0.020294	1.0231	-0.24307	0.15289	-0.12116	-0.08728	0.96283	-0.18723	-0.051575	0.003052	-0.023804	-0.007324	0.043793	-0.2504	-0.008392	-0.003204
24.244	-0.021057	0.73746	-0.10696	-0.000153	-0.27481	-0.28976	0.30991	0.028076	-0.18066	-0.015869	-0.032806	-0.23987	-0.018768	0.49271	-0.082245	0.09079	-0.03067	1.0144	-0.26443	0.12085	-0.10361	-0.068817	0.99945	-0.15686	-0.048676	0.006256	-0.31891	0.00061	0.039978	-0.26428	-0.015869	0.005035
24.245	-0.005035	0.76355	0.002441	0.026855	-0.23575	-0.50079	0.14175	0.02243	-0.068054	-0.023346	-0.057068	-0.077209	-0.041199	0.35065	-0.10193	0.11337	-0.042877	1.0052	-0.21042	0.0383	-0.082245	-0.079193	0.95215	-0.10132	-0.045471	0.005798	-0.22888	-0.002289	0.022888	-0.27252	-0.005951	0.001068
24.246	0.021973	0.78033	0.051727	-0.001221	0.088348	-0.47089	-0.080872	0.016937	-0.018768	-0.02594	-0.042114	-0.079041	-0.024872	0.28122	-0.1088	0.041046	-0.030975	0.99152	-0.24826	0.037079	-0.079956	-0.075226	0.95612	-0.012054	-0.046234	0.007324	0.12192	-0.001373	-0.032043	-0.27023	-0.008698	-0.003052
24.247	0.03891	0.69214	0.18692	0.007935	0.26077	-0.31601	-0.1326	-0.002899	-0.038605	-0.056458	-0.016785	0.03952	-0.052185	0.34668	-0.081482	0.010376	-0.007172	0.93185	-0.26993	0.048676	-0.096436	-0.057068	0.88379	0.03006	-0.047607	0.010986	-0.3833	-0.005798	0.022888	-0.22827	-0.008698	0.000305
24.248	0.028229	0.62149	0.10178	0.005493	0.23697	0.083313	-0.11688	-0.010071	-0.15945	-0.093536	0.033875	0.019684	-0.097046	0.29587	-0.007477	0.010223	0.009003	0.93353	-0.40802	0.14893	-0.096893	-0.081482	0.89462	0.015106	-0.065918	0.014801	-0.084686	-0.00885	0.10834	-0.25925	-0.013123	0
24.249	0.006714	0.67276	-0.019226	0.008545	0.089111	0.39078	-0.09964	0.015106	-0.46906	-0.1236	0.080566	0.041656	0.12589	0.2121	0.23727	0.004272	0.02655	0.91538	-0.40039	0.1831	-0.080719	-0.12161	0.89432	-0.01709	-0.061951	0.008698	-0.43961	-0.002136	0.14465	-0.26871	-0.018158	-0.006104
24.25	-0.010376	0.73303	-0.14282	-0.004272	-0.030518	0.39993	-0.28168	0.039215	-0.43457	-0.10803	0.13931	0.091705	0.066071	0.023804	0.009003	0.009308	-0.026855	0.91171	-0.35202	0.14908	-0.10086	-0.12894	0.85571	-0.020905	-0.051117	0.009155	-0.80261	-0.00351	0.14969	-0.10788	-0.014191	0.000458
24.251	-0.007019	0.7544	-0.17563	-0.002441	-0.13275	0.30624	-0.4158	0.056	-0.31952	-0.088348	0.095062	0.11978	0.1442	0.014038	-0.10391	-0.013123	-0.080872	0.89661	-0.34775	0.10651	-0.084381	-0.13107	0.87143	-0.076447	-0.045776	0.007782	-0.63644	-0.006409	0.17502	0.16647	-0.016174	-0.010071
24.252	0.013275	0.77301	-0.068054	0.010681	-0.13718	0.23239	-0.58197	0.053101	-0.22858	-0.099945	0.04303	0.15381	-0.020905	0.091553	-0.037537	-0.00946	-0.089722	0.77866	-0.47104	0.066376	-0.11688	-0.11688	0.86014	-0.1059	-0.028076	-0.002441	-0.57602	-0.010223	0.14633	0.32532	-0.020752	-0.007477
24.253	0.030365	0.62759	-0.08606	0.013123	-0.06073	0.021362	-0.68787	0.017853	-0.12253	-0.075989	0.042572	0.18539	-0.053406	0.103	-0.014496	-0.057983	-0.10376	0.73715	-0.37262	0.045471	-0.11383	-0.061493	0.84198	-0.14847	-0.033417	-0.000458	-0.46906	-0.006714	0.11902	0.37598	-0.017395	-0.015259
24.254	0.059509	0.53268	-0.037689	0.009308	0.075073	-0.49972	-0.64804	-0.0177	-0.057831	-0.036011	0.025635	0.20737	0.032654	0.10361	-0.027161	-1.0686	-0.12238	0.73883	-0.31418	0.003052	-0.12222	-0.02243	0.81146	-0.224	-0.0354	-0.002441	-0.40604	-0.008087	0.066681	0.36758	-0.020294	-0.017395
24.255	0.06958	0.40451	-0.054474	0.011749	0.14511	-0.2478	-0.68954	-0.075073	0.007477	0.03006	0.019531	0.21866	0.01297	0.13565	-0.045471	0.53299	-0.11444	0.61569	-0.23377	-0.037079	-0.11139	-0.007935	0.82306	-0.233	-0.033569	-0.009003	-0.32989	-0.005188	0.019379	0.27817	-0.015106	-0.01358
